HIERARCHY
ROOT pelvis
{
  OFFSET 0 100 0
  CHANNELS 6 Xposition Yposition Zposition Zrotation Xrotation Yrotation
  JOINT pelvis_right_femur
  {
    OFFSET -10.78128 -3.44521 -0.5502486
    CHANNELS 3 Zrotation Xrotation Yrotation
    JOINT right_femur_tibia
    {
      OFFSET -0.8047443 -44.0398 -0.1307829
      CHANNELS 3 Zrotation Xrotation Yrotation
      JOINT right_tibia_foot
      {
        OFFSET 3.006224 -47.83518 -5
        CHANNELS 3 Zrotation Xrotation Yrotation
        End Site
        {
          OFFSET 0 -5 15
        }
      }
    }
  }
  JOINT pelvis_left_femur
  {
    OFFSET 10.78128 -3.44521 -0.5502486
    CHANNELS 3 Zrotation Xrotation Yrotation
    JOINT left_femur_tibia
    {
      OFFSET 0.8047443 -44.0398 -0.1307829
      CHANNELS 3 Zrotation Xrotation Yrotation
      JOINT left_tibia_foot
      {
        OFFSET -4.370144 -48.10324 -4.275266
        CHANNELS 3 Zrotation Xrotation Yrotation
        End Site
        {
          OFFSET 0 -5 15
        }
      }
    }
  }
  JOINT pelvis_spine1
  {
    OFFSET 0 6.468898 -3.129235
    CHANNELS 3 Zrotation Xrotation Yrotation
    JOINT spine1
    {
      OFFSET 0 23.15396 4.99043
      CHANNELS 3 Zrotation Xrotation Yrotation
      JOINT spine2
      {
        OFFSET 0 20.79997 -5.064912
        CHANNELS 3 Zrotation Xrotation Yrotation
        JOINT neck
        {
          OFFSET 0 14.38658 9.616178
          CHANNELS 3 Zrotation Xrotation Yrotation
          End Site
          {
            OFFSET 0 20 0
          }
        }
      }
      JOINT right_manubrium
      {
        OFFSET -5.722621 16.35077 3.967754
        CHANNELS 3 Zrotation Xrotation Yrotation
        JOINT right_clavicle
        {
          OFFSET -13.16364 1.694482 -4.693211
          CHANNELS 3 Zrotation Xrotation Yrotation
          JOINT right_humerus
          {
            OFFSET -28.5034 -0.3100689 -2.792744
            CHANNELS 3 Zrotation Xrotation Yrotation
            JOINT right_radius
            {
              OFFSET -25.15693 0.02248979 -1.271978
              CHANNELS 3 Zrotation Xrotation Yrotation
              End Site
              {
                OFFSET -15 0 0
              }
            }
          }
        }
      }
      JOINT left_manubrium
      {
        OFFSET 5.722621 16.35077 3.967754
        CHANNELS 3 Zrotation Xrotation Yrotation
        JOINT left_clavicle
        {
          OFFSET 13.16364 1.694482 -4.693211
          CHANNELS 3 Zrotation Xrotation Yrotation
          JOINT left_humerus
          {
            OFFSET 29.39168 -1.063119 -2.237045
            CHANNELS 3 Zrotation Xrotation Yrotation
            JOINT left_radius
            {
              OFFSET 24.59957 -0.9528479 0.9047498
              CHANNELS 3 Zrotation Xrotation Yrotation
              End Site
              {
                OFFSET 15 -0 -0
              }
            }
          }
        }
      }
    }
  }
}
MOTION
Frames: 15
Frame Time: 0.0416666666667
0 103.5113 0 2.213713 -1.145815 0.2863856 1.182903 -9.994125 8.647265 -0 33.69308 -0 -5.248672 -17.85199 -2.179775 -8.073344 10.08859 -23.43396 -0 5.29186 -0 7.610922 -16.152 26.48724 -4.354742 -5.071265 4.985171 2.027547 9.200189 -7.729438 0.8309892 22.80803 7.174802 3.256091 -23.09848 8.795689 6.355719 -19.72116 11.5678 86.34839 35.95714 -19.83816 -0 0 16.17509 -7.577392 8.257668 4.612532 5.525483 -19.50968 -1.694758 -94.71807 29.73642 22.81708 0 0 -16.10639 3.527326 17.89359 9.524947
0.3359978 103.4488 1.452786 2.129637 -0.941317 0.508054 1.322905 -10.70702 8.403888 -0 32.03326 -0 -5.263717 -17.30327 -1.904573 -8.009674 10.21144 -23.18257 -0 5.67535 -0 7.333582 -16.37936 26.13728 -4.312399 -4.930943 4.979681 2.112249 9.146711 -7.727677 0.8402451 22.71309 7.193678 3.284994 -23.21265 8.800783 6.307405 -19.59622 11.54881 86.41421 35.95589 -19.96998 -0 0 15.93386 -7.61816 8.318941 4.628089 5.625707 -19.60267 -1.698315 -94.50535 29.67628 22.48644 0 0 -16.54727 3.62192 17.78763 9.446906
0.6774742 103.342 3.079732 2.022696 -0.6549798 0.7199206 1.487446 -11.58558 8.059249 -0 29.60486 -0 -5.286344 -16.54814 -1.492494 -7.933308 10.36373 -22.80814 -0 6.302104 -0 6.910588 -16.6485 25.60997 -4.250843 -4.755819 4.976606 2.222314 9.071399 -7.724098 0.8493401 22.58919 7.218741 3.32284 -23.35833 8.802123 6.234531 -19.41478 11.51829 86.51985 35.95338 -20.15826 -0 0 15.58784 -7.679469 8.410364 4.652884 5.756918 -19.7295 -1.70671 -94.21022 29.58686 22.02912 0 0 -17.13394 3.746121 17.63742 9.3458
1.025707 103.1851 4.932616 1.90385 -0.2992052 0.9308254 1.65327 -12.52284 7.627118 -0 26.47739 -0 -5.319935 -15.63152 -0.9515599 -7.853597 10.52208 -22.31529 -0 7.199701 -0 6.341166 -16.91445 24.90922 -4.170631 -4.563901 4.979042 2.348154 8.978055 -7.717725 0.8556759 22.44679 7.247788 3.36623 -23.52105 8.796016 6.138332 -19.18221 11.47663 86.66627 35.94923 -20.39446 -0 0 15.14939 -7.762095 8.531186 4.688326 5.907105 -19.88168 -1.721478 -93.8494 29.46821 21.47187 0 0 -17.8216 3.889534 17.44812 9.231297
1.3825 102.977 7.056269 1.780474 0.1071606 1.149826 1.804475 -13.416 7.124566 -0 22.77405 -0 -5.370591 -14.60714 -0.3011895 -7.77598 10.65226 -21.71227 -0 8.399356 -0 5.629151 -17.12651 24.04681 -4.070683 -4.368494 4.990634 2.480711 8.872069 -7.706656 0.8568019 22.29581 7.278031 3.411405 -23.68686 8.778349 6.022332 -18.90657 11.42685 86.84935 35.94333 -20.66483 -0 0 14.6353 -7.868682 8.680405 4.737171 6.062372 -20.04871 -1.744012 -93.44326 29.32017 20.84801 0 0 -18.56325 4.041677 17.22441 9.1138
1.749836 102.7231 9.485686 1.657464 0.5348979 1.382408 1.931459 -14.14077 6.574584 -0 18.68868 -0 -5.446632 -13.54776 0.4259355 -7.701711 10.69705 -21.00919 -0 9.959227 -0 4.780031 -17.21415 23.0413 -3.946734 -4.179994 5.016998 2.60976 8.76138 -7.687185 0.8495753 22.14754 7.305492 3.453434 -23.83936 8.743024 5.892888 -18.59895 11.37542 87.05933 35.93655 -20.94762 -0 0 14.06814 -8.005713 8.857631 4.804955 6.203352 -20.21554 -1.776243 -93.01867 29.14239 20.20332 0 0 -19.30044 4.189808 16.96992 9.007072
2.129323 102.4388 12.24371 1.538679 0.943614 1.626893 2.030305 -14.53823 6.006884 -0 14.48439 -0 -5.556741 -12.54859 1.185106 -7.627446 10.57161 -20.21647 -0 11.97581 -0 3.80019 -17.08093 21.91763 -3.79082 -4.007391 5.066386 2.723017 8.656664 -7.653486 0.829716 22.0157 7.3248 3.4859 -23.95815 8.681221 5.759015 -18.27315 11.33218 87.28124 35.93111 -21.21257 -0 0 13.476 -8.184341 9.063567 4.900596 6.303781 -20.3617 -1.821045 -92.60946 28.9347 19.59752 0 0 -19.95943 4.317964 16.68699 8.929333
2.521658 102.1522 15.34059 1.428007 1.28899 1.8727 2.102658 -14.44101 5.453792 -0 10.44764 -0 -5.706323 -11.71143 1.927669 -7.545374 10.18058 -19.34478 -0 14.55639 -0 2.701699 -16.62337 20.70856 -3.59387 -3.858077 5.148053 2.807822 8.569481 -7.598884 0.7926855 21.91448 7.330117 3.50204 -24.0219 8.583252 5.630502 -17.94416 11.3081 87.49751 35.93003 -21.42592 -0 0 12.88908 -8.417909 9.2992 5.034547 6.335523 -20.46503 -1.881555 -92.25053 28.69785 19.0941 0 0 -20.46292 4.409614 16.37726 8.899829
2.926375 101.9013 18.77564 1.330032 1.534981 2.101824 2.153698 -13.72441 4.942457 -0 6.81319 -0 -5.89391 -11.11672 2.613386 -7.444882 9.447309 -18.40589 -0 17.76211 -0 1.509269 -15.76782 19.45639 -3.350823 -3.736441 5.269457 2.85434 8.509136 -7.51788 0.7355481 21.85474 7.316686 3.496875 -24.01418 8.442096 5.514908 -17.62628 11.31165 87.69082 35.93577 -21.55788 -0 0 12.33505 -8.717907 9.564138 5.215639 6.278114 -20.50827 -1.959481 -91.9684 28.43399 18.74284 0 0 -20.75227 4.452527 16.04279 8.932433
3.341996 101.7272 22.53925 1.251097 1.660608 2.292885 2.186948 -12.33446 4.489103 -0 3.715764 -0 -6.109239 -10.80741 3.218349 -7.315196 8.325655 -17.41282 -0 21.56026 -0 0.2638992 -14.498 18.21456 -3.06549 -3.64281 5.435468 2.857039 8.480875 -7.406607 0.6584517 21.84201 7.281463 3.468581 -23.92625 8.255473 5.415414 -17.33378 11.34666 87.84288 35.94938 -21.58341 -0 0 11.83921 -9.093438 9.855472 5.450153 6.125618 -20.48321 -2.053381 -91.77577 28.14618 18.56964 0 0 -20.80163 4.44143 15.68663 9.031596
3.766693 101.6649 26.61318 1.201326 1.658474 2.426227 2.197727 -10.28027 4.09764 -0 1.183932 -0 -6.331514 -10.79123 3.736473 -7.147617 6.786282 -16.37916 -0 25.79573 -0 -0.9764602 -12.86575 17.05014 -2.754482 -3.573096 5.650424 2.813595 8.486116 -7.261134 0.5653651 21.87728 7.222375 3.418598 -23.75538 8.025551 5.330017 -17.08472 11.41214 87.92778 35.9704 -21.474 -0 0 11.43096 -9.555648 10.16747 5.744156 5.888789 -20.39066 -2.157341 -91.67189 27.8374 18.57742 0 0 -20.61915 4.377347 15.3127 9.191965
4.199499 101.7307 30.96896 1.196427 1.530099 2.489071 2.168951 -7.612957 3.761606 0 -0.8454971 0 -6.527793 -11.05033 4.178021 -6.936374 4.796088 -15.31843 -0 30.17967 -0 -2.139289 -10.99157 16.04414 -2.449535 -3.518955 5.920745 2.723009 8.523499 -7.075379 0.4642614 21.95871 7.137206 3.35111 -23.50159 7.757701 5.251578 -16.90502 11.50305 87.90511 35.99697 -21.18792 -0 0 11.15119 -10.12295 10.49158 6.106568 5.59441 -20.23869 -2.260411 -91.64534 27.50983 18.75171 0 0 -20.24205 4.265645 14.92545 9.399757
4.641606 101.9145 35.56671 1.255834 1.282366 2.479353 2.074191 -4.408252 3.469495 0 -2.497574 0 -6.656511 -11.55048 4.565341 -6.677624 2.315281 -14.24311 -0 34.32859 -0 -3.149172 -9.045424 15.27953 -2.193382 -3.469417 6.254771 2.584801 8.589856 -6.841326 0.3659509 22.08275 7.02341 3.272108 -23.1663 7.459231 5.169486 -16.82675 11.61171 87.72326 36.02561 -20.67235 -0 0 11.04996 -10.82003 10.81696 6.549027 5.280071 -20.04024 -2.348303 -91.67792 27.16491 19.06704 0 0 -19.72675 4.114083 14.52959 9.635803
5.097056 102.1796 40.35744 1.395831 0.9261301 2.40637 1.888456 -0.7561124 3.212499 0 -3.90956 0 -6.678856 -12.24831 4.924477 -6.367563 -0.6792402 -13.16345 -0 37.87008 -0 -3.948179 -7.200229 14.8172 -2.026887 -3.414577 6.658674 2.399768 8.68097 -6.552567 0.2811286 22.24432 6.879359 3.187989 -22.75326 7.138366 5.073423 -16.87815 11.7297 87.33707 36.05033 -19.88221 -0 0 11.17098 -11.66809 11.13201 7.081108 4.983101 -19.80966 -2.407923 -91.74988 26.80405 19.49382 0 0 -19.13258 3.930983 14.12965 9.880812
5.572904 102.4717 45.28908 1.622547 0.4764837 2.287883 1.597924 3.242098 2.990132 0 -5.180348 0 -6.569829 -13.09383 5.276231 -6.002321 -4.162799 -12.08707 -0 40.54193 -0 -4.508888 -5.586056 14.67888 -1.976246 -3.349566 7.131527 2.171177 8.792127 -6.208507 0.2175924 22.43614 6.706064 3.104385 -22.27057 6.803911 4.957082 -17.07311 11.84934 86.72674 36.06176 -18.80108 -0 0 11.53518 -12.67447 11.4261 7.704849 4.730007 -19.55952 -2.431814 -91.84422 26.4296 20.0035 0 0 -18.50641 3.723598 13.72969 10.12058
